HIERARCHY
ROOT Hip
{
	OFFSET 0 1.131 0.0052
	CHANNELS 6 Xposition Yposition Zposition Xrotation Yrotation Zrotation
	JOINT Abdomen
	{
		OFFSET 0 -0.047353 -0.05
		CHANNELS 3 Xrotation Zrotation Yrotation
		JOINT Chest
		{
			OFFSET 0 0.132153 0.007439
			CHANNELS 3 Xrotation Zrotation Yrotation
			JOINT Neck
			{
				OFFSET 0 0.3078 0.006161
				CHANNELS 3 Xrotation Zrotation Yrotation
				JOINT Head_comp
				{
					OFFSET 0 0.0884 0.013
					CHANNELS 3 Xrotation Yrotation Zrotation
					End Site
					{
						OFFSET -0 0.156 0.0624
					}
				}
			}
			JOINT Left_Collar
			{
				OFFSET 0.02282 0.250342 0.017193
				CHANNELS 2 Yrotation Zrotation
				JOINT Left_Shoulder
				{
					OFFSET 0.15421 0 0
					CHANNELS 3 Xrotation Yrotation Zrotation
					JOINT Left_Forearm
					{
						OFFSET 0.265212 0 0
						CHANNELS 2 Yrotation Xrotation
						JOINT Left_Hand
						{
							OFFSET 0.27571 0 0
							CHANNELS 2 Zrotation Yrotation
							JOINT L1ProxPhalanx
							{
								OFFSET 0.014142 0.001733 0.014142
								CHANNELS 3 Yrotation Zrotation Xrotation
								JOINT L1MidPhalanx
								{
									OFFSET 0.04 0 0
									CHANNELS 1 Zrotation
									JOINT L1DistPhalanx
									{
										OFFSET 0.035 0 0
										CHANNELS 1 Zrotation
										End Site
										{
											OFFSET 0.029 -0 -0
										}
									}
								}
							}
							JOINT L2ProxPhalanx
							{
								OFFSET 0.0821037 0.001578 0.0219996
								CHANNELS 2 Yrotation Zrotation
								JOINT L2MidPhalanx
								{
									OFFSET 0.04 0 0
									CHANNELS 1 Zrotation
									JOINT L2DistPhalanx
									{
										OFFSET 0.028 0 0
										CHANNELS 1 Zrotation
										End Site
										{
											OFFSET 0.02 -0 -0
										}
									}
								}
							}
							JOINT L3ProxPhalanx
							{
								OFFSET 0.083 0 0
								CHANNELS 2 Yrotation Zrotation
								JOINT L3MidPhalanx
								{
									OFFSET 0.053 0 0
									CHANNELS 1 Zrotation
									JOINT L3DistPhalanx
									{
										OFFSET 0.03 0 0
										CHANNELS 1 Zrotation
										End Site
										{
											OFFSET 0.023 -0 -0
										}
									}
								}
							}
							JOINT L4ProxPhalanx
							{
								OFFSET 0.077274 -0.000761 -0.0207055
								CHANNELS 2 Yrotation Zrotation
								JOINT L4MidPhalanx
								{
									OFFSET 0.05 0 0
									CHANNELS 1 Zrotation
									JOINT L4DistPhalanx
									{
										OFFSET 0.03 0 0
										CHANNELS 1 Zrotation
										End Site
										{
											OFFSET 0.023 -0 -0
										}
									}
								}
							}
							JOINT L5ProxPhalanx
							{
								OFFSET 0.0675499 -0.001644 -0.039
								CHANNELS 2 Yrotation Zrotation
								JOINT L5MidPhalanx
								{
									OFFSET 0.04 0 0
									CHANNELS 1 Zrotation
									JOINT L5DistPhalanx
									{
										OFFSET 0.021 0 0
										CHANNELS 1 Zrotation
										End Site
										{
											OFFSET 0.022 -0 -0
										}
									}
								}
							}
						}
					}
				}
			}
			JOINT Right_Collar
			{
				OFFSET -0.02282 0.250342 0.017193
				CHANNELS 2 Yrotation Zrotation
				JOINT Right_Shoulder
				{
					OFFSET -0.15421 0 0
					CHANNELS 3 Xrotation Yrotation Zrotation
					JOINT Right_Forearm
					{
						OFFSET -0.265212 0 0
						CHANNELS 2 Yrotation Xrotation
						JOINT Right_Hand
						{
							OFFSET -0.27571 3e-006 0
							CHANNELS 2 Zrotation Yrotation
							JOINT R1ProxPhalanx
							{
								OFFSET -0.014142 0.001733 0.014142
								CHANNELS 3 Yrotation Zrotation Xrotation
								JOINT R1MidPhalanx
								{
									OFFSET -0.04 0 0
									CHANNELS 1 Zrotation
									JOINT R1DistPhalanx
									{
										OFFSET -0.035 0 0
										CHANNELS 1 Zrotation
										End Site
										{
											OFFSET -0.029 -0 -0
										}
									}
								}
							}
							JOINT R2ProxPhalanx
							{
								OFFSET -0.0821037 0.001578 0.0219996
								CHANNELS 2 Yrotation Zrotation
								JOINT R2MidPhalanx
								{
									OFFSET -0.04 0 0
									CHANNELS 1 Zrotation
									JOINT R2DistPhalanx
									{
										OFFSET -0.028 0 0
										CHANNELS 1 Zrotation
										End Site
										{
											OFFSET -0.02 -0 -0
										}
									}
								}
							}
							JOINT R3ProxPhalanx
							{
								OFFSET -0.083 0 0
								CHANNELS 2 Yrotation Zrotation
								JOINT R3MidPhalanx
								{
									OFFSET -0.053 0 0
									CHANNELS 1 Zrotation
									JOINT R3DistPhalanx
									{
										OFFSET -0.03 0 0
										CHANNELS 1 Zrotation
										End Site
										{
											OFFSET -0.023 -0 -0
										}
									}
								}
							}
							JOINT R4ProxPhalanx
							{
								OFFSET -0.077274 -0.000761 -0.0207055
								CHANNELS 2 Yrotation Zrotation
								JOINT R4MidPhalanx
								{
									OFFSET -0.05 0 0
									CHANNELS 1 Zrotation
									JOINT R4DistPhalanx
									{
										OFFSET -0.03 0 0
										CHANNELS 1 Zrotation
										End Site
										{
											OFFSET -0.023 -0 -0
										}
									}
								}
							}
							JOINT R5ProxPhalanx
							{
								OFFSET -0.0675499 -0.001644 -0.039
								CHANNELS 2 Yrotation Zrotation
								JOINT R5MidPhalanx
								{
									OFFSET -0.04 0 0
									CHANNELS 1 Zrotation
									JOINT R5DistPhalanx
									{
										OFFSET -0.021 0 0
										CHANNELS 1 Zrotation
										End Site
										{
											OFFSET -0.022 -0 -0
										}
									}
								}
							}
						}
					}
				}
			}
		}
	}
	JOINT Left_Thigh
	{
		OFFSET 0.1118 -0.1612 -0.0442
		CHANNELS 3 Xrotation Zrotation Yrotation
		JOINT Left_Shin
		{
			OFFSET 0 -0.477856 0
			CHANNELS 1 Xrotation
			JOINT Left_Foot
			{
				OFFSET 0 -0.431952 0
				CHANNELS 2 Xrotation Zrotation
				JOINT Left_Toe
				{
					OFFSET 0 -0.0442 0.119
					CHANNELS 1 Xrotation
					End Site
					{
						OFFSET -0 -0 0.07
					}
				}
			}
		}
	}
	JOINT Right_Thigh
	{
		OFFSET -0.1118 -0.1612 -0.0442
		CHANNELS 3 Xrotation Zrotation Yrotation
		JOINT Right_Shin
		{
			OFFSET 0 -0.477856 0
			CHANNELS 1 Xrotation
			JOINT Right_Foot
			{
				OFFSET 0 -0.431952 0
				CHANNELS 2 Xrotation Zrotation
				JOINT Right_Toe
				{
					OFFSET 0 -0.0442 0.119
					CHANNELS 1 Xrotation
					End Site
					{
						OFFSET -0 -0 0.07
					}
				}
			}
		}
	}
}
MOTION
Frames: 11
Frame Time: 0.00999428
-0.10146 -0.0619865 0.0623273 1.03628e-013 -0.101194 0.0363293 -1.2914 -0.0938917 -0.0287135 -1.2914 0.0383749 -0.0277885 -1.2914 0.0460499 -0.0277885 0.705399 0.365348 0.0383749 0.0277885 -3.36386 28.0204 -4.69995 -74.9073 -82.2516 0 0 0 -36.7832 -29.9624 77.4898 -4.76427 -12.2444 -6.63439 -16.4575 -31.3511 -13.5114 -0.647911 -24.507 -18.2419 -18.0941 9.02909 -22.0218 -38.2405 -19.3412 17.3445 -18.4185 -40.523 -37.4487 0.0277885 4.27055 28.3778 4.06029 74.0903 83.0106 0 0 0 37.9386 28.008 73.698 26.2405 28.4472 13.118 18.2167 29.0248 19.6359 0 22.4358 32.6146 28.1246 -8.63175 30.7051 32.2053 23.7634 -7.83088 26.7354 35.1526 30.0193 -1.70527 -0.696865 0.121978 6.7156 -5.01162 0.663856 0 -1.88176 -0.696615 0.124128 7.03539 -5.15494 0.663984 0 
-0.111806 -0.0599909 0.038987 1.83818e-008 5.78457e-005 -2.08081e-005 0.000738376 5.35324e-005 1.70099e-005 0.000738358 -2.21193e-005 1.56401e-005 0.000738357 -2.65073e-005 1.55907e-005 -0.000403611 -0.000209911 -2.32352e-005 -1.60863e-005 0.00188862 -0.0153364 0.00508213 -88.5055 0.0466619 -9.77189e-006 -1.02808e-005 0 -55.0103 -24.9974 80.0019 -35.0173 -20.0044 -0.996777 -30.0077 -40.005 -15.0008 0.000370711 -32.0043 -40.0125 -17.9999 1.49571 -32.0057 -40.001 -17.9992 5.99353 -24.0032 -33.9963 -19.99 -1.46889e-005 -0.0024076 -0.0155716 -0.00487885 88.506 -0.0471128 2.36142e-005 -1.03515e-005 1.47878e-006 55.0097 24.9988 80.0038 35.005 19.9952 0.993079 30.0067 40.0063 14.9973 0 32.0054 40.0042 17.9942 -1.49593 32.0007 40.0045 17.9967 -5.99897 23.9984 33.9993 19.9943 0.000995317 0.000396909 -6.38789e-005 -0.00383968 0.00284468 -0.000377128 0 0.00109622 0.000396887 -6.44915e-005 -0.00402252 0.00292662 -0.000377208 0 
-0.101543 -0.0619688 0.061726 -3.67009e-008 -0.101056 0.0363517 -1.28992 -0.0938479 -0.0286604 -1.28992 0.0383314 -0.0277562 -1.28992 0.0459976 -0.0277561 0.704987 0.366956 0.0383336 0.0281122 -3.29941 27.541 -6.26783 -77.0244 -81.5183 0.0157049 0.0179637 -0.000450965 -36.8044 -29.9564 77.4917 -4.79884 -12.2533 -6.62797 -16.473 -31.361 -13.5131 -0.647172 -24.5156 -18.2667 -18.094 9.0205 -22.0332 -38.2425 -19.3396 17.3316 -18.4249 -40.5156 -37.4287 0.0256623 4.20609 27.9425 5.66445 76.2054 82.3061 -0.0377766 0.018105 -0.00275523 37.9582 28.0037 73.7046 26.2505 28.4375 13.1042 18.2302 29.0374 19.6306 0 22.4467 32.6231 28.113 -8.6236 30.7065 32.2142 23.7568 -7.82879 26.7323 35.1513 30.0079 -1.73958 -0.691599 0.122112 6.70792 -4.96963 0.658636 0 -1.91587 -0.691347 0.124245 7.02734 -5.11278 0.658764 0 
-0.101451 -0.0619916 0.0625185 -3.7244e-013 -0.101201 0.036308 -1.2914 -0.0938704 -0.0287206 -1.2914 0.0383749 -0.0277885 -1.2914 0.0460499 -0.0277885 0.705428 0.365385 0.0383749 0.0281444 -3.30423 28.9057 -4.43129 -74.9613 -83.8826 0.0157198 0.0179843 -0.000451482 -36.7832 -29.9624 77.4898 -4.76427 -12.2444 -6.63439 -16.4575 -31.3511 -13.5114 -0.647911 -24.507 -18.2419 -18.0941 9.02909 -22.0218 -38.2405 -19.3412 17.3445 -18.4185 -40.523 -37.4487 0.0256916 4.21194 29.2489 3.70396 74.113 84.6305 -0.0378122 0.0181258 -0.00275839 37.9386 28.008 73.698 26.2405 28.4472 13.118 18.2167 29.0248 19.6359 0 22.4358 32.6146 28.1246 -8.63175 30.7051 32.2053 23.7634 -7.83088 26.7354 35.1526 30.0193 -1.69321 -0.697468 0.121855 6.7156 -5.02369 0.664454 0 -1.86969 -0.697217 0.124007 7.03539 -5.167 0.664583 0 
-0.101448 -0.0619938 0.0626036 -1.55688e-013 -0.101204 0.0362986 -1.2914 -0.0938609 -0.0287237 -1.2914 0.0383749 -0.0277885 -1.2914 0.0460499 -0.0277885 0.705361 0.365329 0.0383749 0.0281444 -3.30828 28.9006 -4.40849 -74.9914 -83.805 0.0157198 0.0179843 -0.000451482 -36.7832 -29.9624 77.4898 -4.76427 -12.2444 -6.63439 -16.4575 -31.3511 -13.5114 -0.647911 -24.507 -18.2419 -18.0941 9.02909 -22.0218 -38.2405 -19.3412 17.3445 -18.4185 -40.523 -37.4487 0.0256916 4.21599 29.2444 3.68334 74.1439 84.5539 -0.0378122 0.0181258 -0.00275839 37.9386 28.008 73.698 26.2405 28.4472 13.118 18.2167 29.0248 19.6359 0 22.4358 32.6146 28.1246 -8.63175 30.7051 32.2053 23.7634 -7.83088 26.7354 35.1526 30.0193 -1.68784 -0.697686 0.121799 6.7156 -5.02906 0.664671 0 -1.86433 -0.697436 0.123952 7.03539 -5.17237 0.664799 0 
-0.101449 -0.0619933 0.0625853 -7.88788e-014 -0.101203 0.0363006 -1.2914 -0.093863 -0.0287231 -1.2914 0.0383749 -0.0277885 -1.2914 0.0460499 -0.0277885 0.705358 0.365329 0.0383749 0.0281444 -3.31345 28.8168 -4.43567 -74.9858 -83.656 0.0157198 0.0179843 -0.000451482 -36.7832 -29.9624 77.4898 -4.76427 -12.2444 -6.63439 -16.4575 -31.3511 -13.5114 -0.647911 -24.507 -18.2419 -18.0941 9.02909 -22.0218 -38.2405 -19.3412 17.3445 -18.4185 -40.523 -37.4487 0.0256916 4.22116 29.1629 3.72035 74.1415 84.4076 -0.0378122 0.0181258 -0.00275839 37.9386 28.008 73.698 26.2405 28.4472 13.118 18.2167 29.0248 19.6359 0 22.4358 32.6146 28.1246 -8.63175 30.7051 32.2053 23.7634 -7.83088 26.7354 35.1526 30.0193 -1.68899 -0.697608 0.12181 6.7156 -5.0279 0.664594 0 -1.86548 -0.697358 0.123963 7.03539 -5.17122 0.664722 0 
-0.10145 -0.0619925 0.0625547 3.27596e-013 -0.101202 0.036304 -1.2914 -0.0938664 -0.0287219 -1.2914 0.0383749 -0.0277885 -1.2914 0.0460499 -0.0277885 0.705361 0.365332 0.0383749 0.0281444 -3.31915 28.7177 -4.4702 -74.975 -83.4878 0.0157198 0.0179843 -0.000451482 -36.7832 -29.9624 77.4898 -4.76427 -12.2444 -6.63439 -16.4575 -31.3511 -13.5114 -0.647911 -24.507 -18.2419 -18.0941 9.02909 -22.0218 -38.2405 -19.3412 17.3445 -18.4185 -40.523 -37.4487 0.0256916 4.22686 29.0664 3.76613 74.1343 84.2427 -0.0378122 0.0181258 -0.00275839 37.9386 28.008 73.698 26.2405 28.4472 13.118 18.2167 29.0248 19.6359 0 22.4358 32.6146 28.1246 -8.63175 30.7051 32.2053 23.7634 -7.83088 26.7354 35.1526 30.0193 -1.69092 -0.697503 0.12183 6.7156 -5.02597 0.664489 0 -1.86741 -0.697253 0.123982 7.03539 -5.16929 0.664618 0 
-0.101452 -0.0619916 0.0625212 -2.66301e-013 -0.101201 0.0363077 -1.2914 -0.0938701 -0.0287207 -1.2914 0.0383749 -0.0277885 -1.2914 0.0460499 -0.0277885 0.705366 0.365335 0.0383749 0.0281444 -3.3251 28.6128 -4.50713 -74.9628 -83.3111 0.0157198 0.0179843 -0.000451482 -36.7832 -29.9624 77.4898 -4.76427 -12.2444 -6.63439 -16.4575 -31.3511 -13.5114 -0.647911 -24.507 -18.2419 -18.0941 9.02909 -22.0218 -38.2405 -19.3412 17.3445 -18.4185 -40.523 -37.4487 0.0256916 4.23281 28.9643 3.81486 74.1259 84.0692 -0.0378122 0.0181258 -0.00275839 37.9386 28.008 73.698 26.2405 28.4472 13.118 18.2167 29.0248 19.6359 0 22.4358 32.6146 28.1246 -8.63175 30.7051 32.2053 23.7634 -7.83088 26.7354 35.1526 30.0193 -1.69304 -0.697391 0.121851 6.7156 -5.02385 0.664377 0 -1.86953 -0.69714 0.124003 7.03539 -5.16717 0.664506 0 
-0.101454 -0.0619907 0.0624868 3.40601e-014 -0.1012 0.0363116 -1.2914 -0.093874 -0.0287194 -1.2914 0.0383749 -0.0277885 -1.2914 0.0460499 -0.0277885 0.705371 0.365338 0.0383749 0.0281444 -3.3311 28.5067 -4.54462 -74.9501 -83.1326 0.0157198 0.0179843 -0.000451482 -36.7832 -29.9624 77.4898 -4.76427 -12.2444 -6.63439 -16.4575 -31.3511 -13.5114 -0.647911 -24.507 -18.2419 -18.0941 9.02909 -22.0218 -38.2405 -19.3412 17.3445 -18.4185 -40.523 -37.4487 0.0256916 4.23881 28.8609 3.86424 74.117 83.8942 -0.0378122 0.0181258 -0.00275839 37.9386 28.008 73.698 26.2405 28.4472 13.118 18.2167 29.0248 19.6359 0 22.4358 32.6146 28.1246 -8.63175 30.7051 32.2053 23.7634 -7.83088 26.7354 35.1526 30.0193 -1.69521 -0.697276 0.121873 6.7156 -5.02168 0.664263 0 -1.8717 -0.697026 0.124024 7.03539 -5.165 0.664392 0 
-0.101456 -0.0619898 0.0624528 3.96738e-013 -0.101198 0.0363153 -1.2914 -0.0938777 -0.0287181 -1.2914 0.0383749 -0.0277885 -1.2914 0.0460499 -0.0277885 0.705376 0.365341 0.0383749 0.0281444 -3.33695 28.4028 -4.58132 -74.9375 -82.9582 0.0157198 0.0179843 -0.000451482 -36.7832 -29.9624 77.4898 -4.76427 -12.2444 -6.63439 -16.4575 -31.3511 -13.5114 -0.647911 -24.507 -18.2419 -18.0941 9.02909 -22.0218 -38.2405 -19.3412 17.3445 -18.4185 -40.523 -37.4487 0.0256916 4.24466 28.7596 3.91252 74.1082 83.723 -0.0378122 0.0181258 -0.00275839 37.9386 28.008 73.698 26.2405 28.4472 13.118 18.2167 29.0248 19.6359 0 22.4358 32.6146 28.1246 -8.63175 30.7051 32.2053 23.7634 -7.83088 26.7354 35.1526 30.0193 -1.69735 -0.697163 0.121894 6.7156 -5.01954 0.664151 0 -1.87384 -0.696913 0.124045 7.03539 -5.16286 0.664279 0 
-0.101457 -0.061989 0.0624203 -4.52685e-014 -0.101197 0.036319 -1.2914 -0.0938814 -0.0287169 -1.2914 0.0383749 -0.0277885 -1.2914 0.0460499 -0.0277885 0.705381 0.365343 0.0383749 0.0281444 -3.34251 28.304 -4.61615 -74.9255 -82.7924 0.0157198 0.0179843 -0.000451482 -36.7832 -29.9624 77.4898 -4.76427 -12.2444 -6.63439 -16.4575 -31.3511 -13.5114 -0.647911 -24.507 -18.2419 -18.0941 9.02909 -22.0218 -38.2405 -19.3412 17.3445 -18.4185 -40.523 -37.4487 0.0256916 4.25022 28.6634 3.9583 74.0998 83.5603 -0.0378122 0.0181258 -0.00275839 37.9386 28.008 73.698 26.2405 28.4472 13.118 18.2167 29.0248 19.6359 0 22.4358 32.6146 28.1246 -8.63175 30.7051 32.2053 23.7634 -7.83088 26.7354 35.1526 30.0193 -1.69941 -0.697055 0.121915 6.7156 -5.01749 0.664044 0 -1.87589 -0.696805 0.124066 7.03539 -5.1608 0.664172 0 
